# xmcd
#
# Track frame offsets: 
#        150
#        59392
#        94061
#        123232
#        158607
#
# Disc length: 2728 seconds
#
# Revision: 0
# Processed by: cddbd v1.5.2PL0 Copyright (c) Steve Scherf et al.
# Submitted via: ExactAudioCopyFreeDBPlugin 1.0
#
DISCID=350aa605
DTITLE=Erwan Keravec - Sonneurs
DYEAR=2017
DGENRE=
TTITLE0=Erwan Keravec, Mickael Cozien, Erwan Hamon, Guenole Keravec - 
TTITLE0=Run
TTITLE1=Erwan Keravec, Mickael Cozien, Erwan Hamon, Guenole Keravec - 
TTITLE1=Ode funèbre à Tristan
TTITLE2=To Air One
TTITLE3=Erwan Keravec, Mickael Cozien, Erwan Hamon, Guenole Keravec - 
TTITLE3=Sans Titre Provisoire
TTITLE4=Erwan Keravec, Mickael Cozien, Erwan Hamon, Guenole Keravec - 
TTITLE4=Spas
EXTD=
EXTT0=
EXTT1=
EXTT2=
EXTT3=
EXTT4=
PLAYORDER=
